<svg height="26" width="26" xmlns="http://www.w3.org/2000/svg"><g fill="none" fill-rule="evenodd" stroke="#000"><path d="M12.656 23.4l-2.342.859a1 1 0 0 1-1.142-.335l-1.505-1.989a1 1 0 0 0-.58-.372l-2.433-.543a1 1 0 0 1-.78-.9l-.19-2.486a1 1 0 0 0-.287-.627l-1.754-1.773a1 1 0 0 1-.17-1.178l1.184-2.195a1 1 0 0 0 .098-.682l-.517-2.44a1 1 0 0 1 .494-1.082L4.915 6.45a1 1 0 0 0 .45-.52l.885-2.333a1 1 0 0 1 1.001-.643l2.489.164a1 1 0 0 0 .66-.194l2.005-1.484a1 1 0 0 1 1.19 0l2.004 1.484a1 1 0 0 0 .661.194l2.489-.164a1 1 0 0 1 1.001.643l.884 2.332a1 1 0 0 0 .451.52l2.183 1.208a1 1 0 0 1 .494 1.082l-.517 2.44a1 1 0 0 0 .098.682l1.184 2.195a1 1 0 0 1-.17 1.178l-1.754 1.773a1 1 0 0 0-.286.627l-.191 2.486a1 1 0 0 1-.78.9l-2.434.543a1 1 0 0 0-.58.372l-1.504 1.989a1 1 0 0 1-1.142.335l-2.342-.86a1 1 0 0 0-.688 0z" fill="#caff04" stroke-width="2"/><path d="M8.5 11.955l.818.818 2.455 2.454A28.636 28.636 0 0 1 17.5 9.5" stroke-width="2.5"/></g></svg>