<svg width="21" height="23" xmlns="http://www.w3.org/2000/svg"><defs><linearGradient x1="51.634%" y1="8.781%" x2="51.05%" y2="23.499%" id="a"><stop stop-color="#FFB92D" offset="0%"/><stop stop-color="#F59500" offset="100%"/></linearGradient><linearGradient x1="54.641%" y1="17.085%" x2="52.976%" y2="28.887%" id="b"><stop stop-color="#FFB92D" offset="0%"/><stop stop-color="#F59500" offset="100%"/></linearGradient><linearGradient x1="49.999%" y1="57.76%" x2="49.999%" y2="84.506%" id="c"><stop stop-color="#A7F3CE" offset="0%"/><stop stop-color="#61DB99" offset="100%"/></linearGradient><linearGradient x1="49.999%" y1="18.284%" x2="49.999%" y2="104.441%" id="d"><stop stop-color="#FF4C54" offset="0%"/><stop stop-color="#BE3F45" offset="100%"/></linearGradient><linearGradient x1="49.999%" y1="18.278%" x2="49.999%" y2="104.441%" id="e"><stop stop-color="#FF4C54" offset="0%"/><stop stop-color="#BE3F45" offset="100%"/></linearGradient><linearGradient x1="62.291%" y1="50.001%" x2="13.935%" y2="50.001%" id="f"><stop stop-color="#BE3F45" stop-opacity="0" offset="0%"/><stop stop-color="#BE3F45" offset="100%"/></linearGradient><linearGradient x1="33.013%" y1="44.326%" x2="75.163%" y2="63.675%" id="g"><stop stop-color="#FFB92D" offset="0%"/><stop stop-color="#F59500" offset="100%"/></linearGradient><linearGradient x1="48.656%" y1="51.958%" x2="46.914%" y2="56.672%" id="h"><stop stop-color="#BE3F45" stop-opacity="0" offset="0%"/><stop stop-color="#BE3F45" offset="100%"/></linearGradient><linearGradient x1="49.995%" y1=".041%" x2="49.995%" y2="2091.418%" id="i"><stop stop-color="#FFF465" offset="0%"/><stop stop-color="#FFE600" offset="100%"/></linearGradient><linearGradient x1="49.999%" y1="-1.406%" x2="49.999%" y2="100.001%" id="j"><stop stop-color="#FFF465" offset="0%"/><stop stop-color="#FFE600" offset="100%"/></linearGradient><linearGradient x1="49.993%" y1="-1737.589%" x2="49.993%" y2="322.345%" id="k"><stop stop-color="#FFF465" offset="0%"/><stop stop-color="#FFE600" offset="100%"/></linearGradient><linearGradient x1="62.56%" y1="52.528%" x2="19.551%" y2="-10.519%" id="l"><stop stop-color="#BE3F45" stop-opacity="0" offset="0%"/><stop stop-color="#BE3F45" offset="100%"/></linearGradient><linearGradient x1="49.989%" y1="18.62%" x2="49.989%" y2="90.924%" id="m"><stop stop-color="#FF4C54" offset="0%"/><stop stop-color="#BE3F45" offset="100%"/></linearGradient><linearGradient x1="49.984%" y1="81.397%" x2="49.984%" y2="9.102%" id="n"><stop stop-color="#FF4C54" offset="0%"/><stop stop-color="#BE3F45" offset="100%"/></linearGradient><linearGradient x1="-423.973%" y1="-2042.808%" x2="-323.983%" y2="-1601.232%" id="o"><stop stop-color="#A7F3CE" offset="0%"/><stop stop-color="#61DB99" offset="100%"/></linearGradient><linearGradient x1="-423.977%" y1="-2042.787%" x2="-323.987%" y2="-1601.212%" id="p"><stop stop-color="#A7F3CE" offset="0%"/><stop stop-color="#61DB99" offset="100%"/></linearGradient><linearGradient x1="-463.541%" y1="-2217.542%" x2="-363.551%" y2="-1775.966%" id="q"><stop stop-color="#A7F3CE" offset="0%"/><stop stop-color="#61DB99" offset="100%"/></linearGradient><linearGradient x1="-463.544%" y1="-2217.521%" x2="-363.554%" y2="-1775.946%" id="r"><stop stop-color="#A7F3CE" offset="0%"/><stop stop-color="#61DB99" offset="100%"/></linearGradient></defs><g fill="none"><path d="M19.238 21.089H1.693A1.693 1.693 0 0 1 0 19.396V4.786c0-.935.758-1.693 1.693-1.693h17.545c.935 0 1.693.758 1.693 1.693v14.61c0 .935-.758 1.693-1.693 1.693z" fill="url(#a)"/><path d="M18.847 20.688H2.084A1.618 1.618 0 0 1 .467 19.07V5.112c0-.893.724-1.618 1.617-1.618h16.763c.893 0 1.618.725 1.618 1.618V19.07c0 .893-.725 1.618-1.618 1.618z" fill="url(#b)"/><path d="M19.797 7.819l-4.22-7.31a1.018 1.018 0 0 0-1.39-.372L.88 7.819h18.917z" fill="url(#c)"/><path d="M0 13.702h20.931V8.158c0-.7-.567-1.267-1.267-1.267H1.267C.567 6.89 0 7.458 0 8.158v5.544z" fill="url(#d)"/><path d="M0 11.617v7.779c0 .935.758 1.693 1.693 1.693h17.545c.935 0 1.693-.758 1.693-1.693v-7.78c0-.577-.468-1.045-1.045-1.045H1.046C.468 10.57 0 11.039 0 11.617z" fill="url(#e)"/><path d="M17.774 7.604V21.09h1.464c.935 0 1.693-.758 1.693-1.693v-8.634l-3.157-3.158z" fill="url(#f)"/><path d="M16.346 22.987L1.652 21.281A1.868 1.868 0 0 1 0 19.425V4.66c0 .317.238.584.553.62l16.224 1.885c.942.11 1.652.907 1.652 1.856v12.11a1.868 1.868 0 0 1-2.083 1.856z" fill="url(#g)"/><path d="M16.346 20.038L1.652 18.331A1.868 1.868 0 0 1 0 16.476v2.95c0 .948.71 1.745 1.652 1.855l14.694 1.706a1.868 1.868 0 0 0 2.083-1.855v-2.95a1.868 1.868 0 0 1-2.083 1.856z" fill="url(#h)"/><path d="M1.317 6.961a.35.35 0 0 1-.037-.002l-.672-.074a.338.338 0 1 1 .073-.672l.673.074a.338.338 0 0 1-.037.674z" fill="url(#i)"/><path d="M15.134 21.873a.35.35 0 0 1-.043-.003l-1.307-.166a.338.338 0 1 1 .085-.671l1.307.166a.338.338 0 0 1-.042.674zm1.286-.167a.338.338 0 0 1-.144-.645c.343-.161.6-.43.708-.736a.338.338 0 0 1 .638.223c-.168.484-.544.883-1.058 1.125a.337.337 0 0 1-.144.033zm-3.9-.165a.35.35 0 0 1-.043-.003l-1.307-.166a.338.338 0 1 1 .086-.671l1.306.166a.338.338 0 0 1-.042.674zm-2.613-.333c-.015 0-.03 0-.044-.003l-1.306-.166a.338.338 0 1 1 .085-.67l1.307.165a.338.338 0 0 1-.042.674zm-2.614-.332c-.014 0-.029-.001-.043-.003l-1.307-.166a.338.338 0 1 1 .085-.671l1.307.166a.338.338 0 0 1-.042.674zm-2.614-.333c-.014 0-.028 0-.043-.002l-1.307-.166a.338.338 0 1 1 .086-.672l1.307.167a.338.338 0 0 1-.043.673zm12.7-1.077a.338.338 0 0 1-.338-.338v-1.317a.338.338 0 1 1 .676 0v1.317a.338.338 0 0 1-.338.338zm0-2.634a.338.338 0 0 1-.338-.338v-1.318a.338.338 0 1 1 .676 0v1.318a.338.338 0 0 1-.338.338zm0-2.635a.338.338 0 0 1-.338-.338v-1.317a.338.338 0 1 1 .676 0v1.317a.338.338 0 0 1-.338.338zm0-2.634a.338.338 0 0 1-.338-.339V9.907a.338.338 0 1 1 .676 0v1.317a.338.338 0 0 1-.338.339zm-.473-2.5a.337.337 0 0 1-.233-.093 1.658 1.658 0 0 0-.98-.426l-.008-.001a.338.338 0 1 1 .072-.673l.006.001a2.335 2.335 0 0 1 1.376.608.338.338 0 0 1-.233.584zM14.412 8.4a.35.35 0 0 1-.038-.002l-1.309-.144a.338.338 0 0 1 .074-.672l1.31.144a.338.338 0 0 1-.037.674zm-2.62-.288a.35.35 0 0 1-.036-.002l-1.31-.144a.338.338 0 0 1 .074-.672l1.31.144a.338.338 0 0 1-.037.674zm-2.618-.288a.35.35 0 0 1-.037-.002l-1.31-.144a.338.338 0 0 1 .074-.672l1.31.144a.338.338 0 0 1-.037.674zm-2.619-.288a.35.35 0 0 1-.037-.002l-1.31-.144a.338.338 0 1 1 .074-.672l1.31.144a.338.338 0 0 1-.037.674zM3.936 7.25a.35.35 0 0 1-.037-.002l-1.31-.144a.338.338 0 0 1 .074-.672l1.31.144a.338.338 0 0 1-.037.674z" fill="url(#j)"/><path d="M2.062 20.21c-.014 0-.028 0-.043-.002l-.67-.085a.338.338 0 1 1 .085-.671l.67.085a.338.338 0 0 1-.042.674z" fill="url(#k)"/><path d="M14.49 2.519l-2.165 1.178a.581.581 0 0 1-.556-1.021l2.165-1.178a.581.581 0 1 1 .556 1.021z" fill="#61DB99"/><path d="M18.43 16.344l-2.149-2.149a1.658 1.658 0 1 0-2.343 2.343l4.491 4.49v-4.684z" fill="url(#l)"/><circle fill="url(#m)" cx="15.059" cy="15.316" r="1.658"/><circle fill="url(#n)" cx="15.059" cy="15.316" r="1.144"/><circle fill="url(#o)" cx="14.625" cy="14.881" r="1"/><circle fill="url(#p)" cx="15.494" cy="14.881" r="1"/><circle fill="url(#q)" cx="14.625" cy="15.751" r="1"/><circle fill="url(#r)" cx="15.494" cy="15.751" r="1"/></g></svg>