<svg height="18" viewBox="0 0 24 18" width="24" xmlns="http://www.w3.org/2000/svg"><g fill="none" fill-rule="evenodd" stroke="#000" stroke-linecap="round" stroke-width="2" transform="translate(1.809329 1)"><path d="m2.37000585 9.69230001c.77648893 3.60549999 3.98301058 6.30769999 7.82066485 6.30769999 1.0846813 0 2.1189437-.2158689 3.0621695-.606989.9778149-.4054628 1.8577938-.9992658 2.5946847-1.7361568.3883025-.3883024.7368733-.8163366 1.0390912-1.2774813m1.237632-5.41503892c-.5078728-3.9290295-3.8662584-6.96433398-7.9335774-6.96433398-1.08468132 0-2.11894375.21586892-3.06216953.606989-.97781483.40546285-1.85779377.9992658-2.59468472 1.73615675-.38648095.38648095-.76303201.82942294-1.09225415 1.30435912"/><g stroke-linejoin="round"><path d="m4.1906707 10c-1.33333334-1.33333333-2-2-2-2s-.66666667.66666667-2 2" transform="matrix(.96592583 -.25881905 .25881905 .96592583 -2.254726 .873655)"/><path d="m20.1906707 8c-1.3333333-1.33333333-2-2-2-2s-.6666667.66666667-2 2" transform="matrix(.96592583 -.25881905 -.25881905 -.96592583 2.431565 18.469573)"/></g></g></svg>