<svg height="60" width="60" xmlns="http://www.w3.org/2000/svg"><g fill="none" fill-rule="evenodd"><circle cx="30" cy="30" fill="#12ad7e" r="30"/><path d="M32.653 26.087v-2.609h7.782v-5.217h-20.87v5.217h7.8v2.609c-5.938.274-10.408 1.2-10.408 2.609 0 1.408 4.47 3.638 10.408 3.913v10.434h5.288V32.61c5.932-.275 10.39-2.505 10.39-3.913-.005-1.409-4.458-2.335-10.39-2.609zM30 31.236c-1.367 0-2.289-.036-2.629-.054-5.246-.227-9.11-1.394-9.11-2.486s3.858-1.751 9.11-1.984V30c.346.024 1.268.26 2.629.26 1.63 0 2.504-.242 2.659-.26v-3.3c5.24.233 9.08.903 9.08 1.996-.012 1.092-3.852 2.247-9.086 2.486-.15.006-.946.054-2.653.054z" fill="#fff" fill-rule="nonzero"/></g></svg>