<svg width="30" height="30" xmlns="http://www.w3.org/2000/svg"><path d="M15 0C6.716 0 0 6.716 0 15c0 8.284 6.716 15 15 15 8.284 0 15-6.716 15-15 0-8.284-6.716-15-15-15zm6.953 10.201c-.226 2.372-1.203 8.128-1.7 10.784-.21 1.125-.624 1.502-1.025 1.538-.87.08-1.532-.576-2.376-1.129-1.32-.865-2.066-1.404-3.347-2.248-1.482-.976-.521-1.512.323-2.389.22-.23 4.058-3.72 4.133-4.037.01-.04.018-.187-.07-.265-.088-.078-.217-.051-.31-.03-.133.03-2.242 1.424-6.327 4.182-.6.411-1.141.61-1.628.6-.535-.01-1.565-.302-2.331-.551-.94-.305-1.686-.467-1.62-.986.033-.27.405-.546 1.115-.828 4.373-1.906 7.288-3.161 8.747-3.768C19.703 9.34 20.57 9.04 21.133 9.03c.707-.013.877.57.82 1.171z"/></svg>