<svg height="19" viewBox="0 0 18 19" width="18" xmlns="http://www.w3.org/2000/svg"><g><path d="m3.93750699 11.1700239c0-.2912349-.2361098-.5273447-.52734469-.5273447h-2.88281761c-.2912349 0-.52734469.2361098-.52734469.5273447s.23610979.5273447.52734469.5273447h2.88281761c.29123489 0 .52734469-.2361098.52734469-.5273447z"/><path d="m.52734469 9.58798986h1.12500199c.29123489 0 .52734469-.23610979.52734469-.52734468 0-.2912349-.2361098-.52734469-.52734469-.52734469h-1.12500199c-.2912349 0-.52734469.23610979-.52734469.52734469 0 .29123489.23610979.52734468.52734469.52734468z"/><circle cx="12.230262" cy="2.734106" r="1.933305" transform="matrix(.70710678 -.70710678 .70710678 .70710678 1.648856 9.448902)"/><path d="m17.3057651 3.08217363c-.5473486-.19923082-1.1525646.08300405-1.3517954.63035268l-.9018297 2.47771143-1.7908626-.65183319c-.3211177.11819552-.6678996.18284798-1.0295174.18284798-1.1061231 0-2.0730623-.60454795-2.58971945-1.500155l-.43122733-.15693778c-.53121188-.19332457-1.09968945-.26209031-1.66166311-.20098864l-2.01333169.21898867c-.59923935.0651798-1.1093926.46522348-1.31558437 1.03166199l-.82237646 2.25942588c-.19923082.54734863.08300406 1.1525997.63035268 1.35179537.54734863.19923082 1.1525997-.08300406 1.35179537-.63035268l.67813011-1.86317909 2.13223035-.20482068-2.56254361 7.04047343h-2.65430159c-.67957152 0-1.23047093.5508994-1.23047093 1.2304358v.0000351c0 .6795716.55089941 1.230471 1.23047093 1.230471h3.26974799c.66508712 0 1.25915848-.4159695 1.48661983-1.0409433l.57719633-1.5858661 1.98218325.7214779-1.25747102 3.4548811c-.2921138.8025483.30220366 1.651292 1.15625592 1.651292.51729 0 .9793494-.3235436 1.156256-.8096147l1.5580574-4.2807733c.2988287-.8210405-.1245236-1.7288819-.9455641-2.0277106l-.8258921-.3005865 1.3827681-3.79916685 2.312547.84171243c.8210405.29882866 1.728882-.1244885 2.0277107-.94556418l1.0821464-2.97323965c.199266-.54738378-.0829337-1.1525997-.6303175-1.35183052z"/></g></svg>