<svg height="28" viewBox="0 0 28 28" width="28" xmlns="http://www.w3.org/2000/svg" xmlns:xlink="http://www.w3.org/1999/xlink"><mask id="a" fill="#fff"><circle cx="12" cy="12" fill="#fff" fill-rule="evenodd" r="12"/></mask><g fill="none" fill-rule="evenodd" transform="translate(2 2)"><circle cx="12" cy="12" r="13" stroke="#fff" stroke-width="2"/><g mask="url(#a)"><g transform="translate(.923077 .923077)"><path d="m3.692308 3.692308h14.769231v14.769231h-14.769231z" fill="#fff"/><path d="m0 0v22.1538462h22.1538462v-22.1538462zm4.7924355 5.11764925c0-.15545932.1268691-.28232842.28232842-.28232842h3.62738407c.15545932 0 .28232841.1268691.28232841.28232842v3.62738407c0 .1572462-.12686909.2841153-.28232841.2841153h-3.62738407c-.15545932 0-.28232842-.1268691-.28232842-.2841153zm4.1920409 11.91854765c0 .1554593-.12686909.2823284-.28232841.2823284h-3.62738407c-.15545932 0-.28232842-.1268691-.28232842-.2823284v-3.6273841c0-.1572462.1268691-.2841153.28232842-.2841153h3.62738407c.15545932 0 .28232841.1268691.28232841.2841153zm3.9061387-3.8632534h-3.62738406c-.15545932 0-.2841153-.1268691-.2841153-.2841153v-3.62738405c0-.15545931.1268691-.2841153.2841153-.2841153h3.62738406c.1554593 0 .2841153.1268691.2841153.2841153v3.62738405c0 .1554593-.1268691.2841153-.2841153.2841153zm4.4761562 3.8632534c0 .1554593-.1268691.2823284-.2841153.2823284h-3.6273841c-.1554593 0-.2823284-.1268691-.2823284-.2823284v-3.6273841c0-.1572462.1268691-.2841153.2823284-.2841153h3.6273841c.1554593 0 .2841153.1268691.2841153.2841153zm0-8.29295047c0 .15724621-.1268691.2841153-.2841153.2841153h-3.6273841c-.1554593 0-.2823284-.12686909-.2823284-.2841153v-3.62738407c0-.15545932.1268691-.28232842.2823284-.28232842h3.6273841c.1554593 0 .2841153.1268691.2841153.28232842z" fill="#000" fill-rule="nonzero"/></g></g></g></svg>