<svg width="27" height="18" xmlns="http://www.w3.org/2000/svg"><defs><clipPath id="a"><path d="M1440 0v1024H0V0h1440z"/></clipPath><clipPath id="b"><path d="M23 0a4 4 0 0 1 4 4v10a4 4 0 0 1-4 4H4a4 4 0 0 1-4-4V4a4 4 0 0 1 4-4h19z"/></clipPath><clipPath id="c"><path d="M15.379 0l10.316 8.595a2.812 2.812 0 0 1-2.16 1.012H2.16A2.812 2.812 0 0 1 0 8.595L10.316 0l1.069.731c.88.608 2.045.608 2.925 0L15.379 0z"/></clipPath><clipPath id="d"><path d="M23.692 0a2.775 2.775 0 0 1 2.318 1.226L15.536 8.393l-1.069.73a2.575 2.575 0 0 1-2.925 0l-1.068-.73L0 1.215A2.825 2.825 0 0 1 2.318 0h21.374z"/></clipPath><clipPath id="e"><path d="M.495 0L10.97 7.177.653 15.772a2.8 2.8 0 0 1-.653-1.8V1.597C-.003 1.027.17.47.495 0z"/></clipPath><clipPath id="f"><path d="M10.474 0c.324.465.496 1.02.495 1.586v12.375a2.8 2.8 0 0 1-.653 1.8L0 7.166 10.474 0z"/></clipPath></defs><g clip-path="url(#a)" transform="translate(-798 -531)"><g clip-path="url(#b)" transform="translate(798 531)"><path fill="#FFD32D" d="M0 0L27 0 27 18 0 18 0 0z"/></g><g clip-path="url(#c)" transform="translate(798.653 539.393)"><path fill="#FF9F1E" d="M0 0L25.694971 0 25.694971 9.60749358 0 9.60749358 0 0z"/></g><g clip-path="url(#d)" transform="translate(798.495 531)"><path fill="#FFD32D" d="M0 -0.0000381935905L26.0098999 -0.0000381935905 26.0098999 9.57942503 0 9.57942503 0 -0.0000381935905z"/></g><g clip-path="url(#e)" transform="translate(798 532.215)"><path fill="#FFBF17" d="M-0.0000485582001 0L10.9687726 0 10.9687726 15.772443 -0.0000485582001 15.772443 -0.0000485582001 0z"/></g><g clip-path="url(#f)" transform="translate(814.031 532.226)"><path fill="#FFBF17" d="M0 0L10.9687469 0 10.9687469 15.7612106 0 15.7612106 0 0z"/></g></g></svg>